<?xml version="1.0"?>
<svg xmlns="http://www.w3.org/2000/svg" xmlns:xlink="http://www.w3.org/1999/xlink" xmlns:svgjs="http://svgjs.com/svgjs" version="1.1" width="512" height="512" x="0" y="0" viewBox="0 0 477.867 477.867" style="enable-background:new 0 0 512 512" xml:space="preserve" class=""><g>
<g xmlns="http://www.w3.org/2000/svg">
	<g>
		<path d="M460.8,0H17.067C7.641,0,0,7.641,0,17.067V460.8c0,9.426,7.641,17.067,17.067,17.067H460.8    c9.426,0,17.067-7.641,17.067-17.067V17.067C477.867,7.641,470.226,0,460.8,0z M443.733,443.733h-409.6v-409.6h409.6V443.733z" fill="#32e0c4" data-original="#000000" style="" class=""/>
	</g>
</g>
<g xmlns="http://www.w3.org/2000/svg">
	<g>
		<path d="M392.533,68.267h-68.267c-9.426,0-17.067,7.641-17.067,17.067s7.641,17.067,17.067,17.067h27.068l-90.334,90.334    c-6.664,6.666-6.662,17.472,0.004,24.136c3.2,3.199,7.538,4.996,12.063,4.997c4.526-0.001,8.866-1.8,12.066-5.001l90.334-90.334    V153.6c0,9.426,7.641,17.067,17.067,17.067S409.6,163.026,409.6,153.6V85.333C409.6,75.908,401.959,68.267,392.533,68.267z" fill="#32e0c4" data-original="#000000" style="" class=""/>
	</g>
</g>
<g xmlns="http://www.w3.org/2000/svg">
	<g>
		<path d="M392.533,307.2c-9.426,0-17.067,7.641-17.067,17.067v27.068l-90.334-90.334c-6.78-6.548-17.584-6.36-24.132,0.42    c-6.387,6.614-6.387,17.099,0,23.712l90.334,90.334h-27.068c-9.426,0-17.067,7.641-17.067,17.067s7.641,17.067,17.067,17.067    h68.267c9.426,0,17.067-7.641,17.067-17.067v-68.267C409.6,314.841,401.959,307.2,392.533,307.2z" fill="#32e0c4" data-original="#000000" style="" class=""/>
	</g>
</g>
<g xmlns="http://www.w3.org/2000/svg">
	<g>
		<path d="M216.447,261.001c-6.614-6.388-17.099-6.388-23.713,0L102.4,351.334v-27.068c0-9.426-7.641-17.067-17.067-17.067    s-17.067,7.641-17.067,17.067v68.267c0.008,6.9,4.17,13.117,10.547,15.753c2.065,0.865,4.281,1.312,6.519,1.314H153.6    c9.426,0,17.067-7.641,17.067-17.067s-7.641-17.067-17.067-17.067h-27.068l90.334-90.334    C223.414,278.353,223.226,267.549,216.447,261.001z" fill="#32e0c4" data-original="#000000" style="" class=""/>
	</g>
</g>
<g xmlns="http://www.w3.org/2000/svg">
	<g>
		<path d="M216.866,192.734L126.532,102.4H153.6c9.426,0,17.067-7.641,17.067-17.067s-7.641-17.067-17.067-17.067H85.333    c-9.426,0-17.067,7.641-17.067,17.067V153.6c0,9.426,7.641,17.067,17.067,17.067S102.4,163.026,102.4,153.6v-27.068l90.334,90.334    c6.78,6.548,17.584,6.361,24.132-0.419C223.254,209.833,223.254,199.348,216.866,192.734z" fill="#32e0c4" data-original="#000000" style="" class=""/>
	</g>
</g>
<g xmlns="http://www.w3.org/2000/svg">
</g>
<g xmlns="http://www.w3.org/2000/svg">
</g>
<g xmlns="http://www.w3.org/2000/svg">
</g>
<g xmlns="http://www.w3.org/2000/svg">
</g>
<g xmlns="http://www.w3.org/2000/svg">
</g>
<g xmlns="http://www.w3.org/2000/svg">
</g>
<g xmlns="http://www.w3.org/2000/svg">
</g>
<g xmlns="http://www.w3.org/2000/svg">
</g>
<g xmlns="http://www.w3.org/2000/svg">
</g>
<g xmlns="http://www.w3.org/2000/svg">
</g>
<g xmlns="http://www.w3.org/2000/svg">
</g>
<g xmlns="http://www.w3.org/2000/svg">
</g>
<g xmlns="http://www.w3.org/2000/svg">
</g>
<g xmlns="http://www.w3.org/2000/svg">
</g>
<g xmlns="http://www.w3.org/2000/svg">
</g>
</g></svg>
