<svg xmlns="http://www.w3.org/2000/svg" width="500" height="500" viewBox="0 0 32 32"><g transform="translate(0 -1020.362)"><path fill="#373748" style="line-height:normal;text-indent:0;text-align:start;text-decoration-line:none;text-decoration-style:solid;text-decoration-color:#000;text-transform:none;block-progression:tb;isolation:auto;mix-blend-mode:normal" d="m 0.5,1020.3613 a 0.50005,0.50005 0 0 0 -0.5,0.5 l 0,31 a 0.50005,0.50005 0 0 0 0.5,0.5 l 31,0 a 0.50005,0.50005 0 0 0 0.5,-0.5 l 0,-31 a 0.50005,0.50005 0 0 0 -0.5,-0.5 l -31,0 z m 0.5,1 30,0 0,30 -30,0 0,-30 z" color="#000" font-family="sans-serif" font-weight="400" overflow="visible" white-space="normal"/><path fill="#5fd38d" style="isolation:auto;mix-blend-mode:normal" d="m 1,1021.3622 12,0 0,12 -12,0 z" color="#000" overflow="visible"/><path fill="#f2f2f2" style="isolation:auto;mix-blend-mode:normal" d="m 3,1023.3622 8,0 0,8 -8,0 z" color="#000" overflow="visible"/><path fill="#5fd38d" style="isolation:auto;mix-blend-mode:normal" d="M4 1027.8622l2.4999995 0 0 2.5-2.4999995 0zM7.5 1027.8622l2.5 0 0 2.5-2.5 0zM3 1033.3622l0 3 0 1 10 0 0 1 2-2.0078-2-1.9922 0 1-8 0 0-2zM4 1024.3622l2.4999995 0 0 2.5-2.4999995 0zM7.5 1024.3622l2.5 0 0 2.5-2.5 0z" color="#000" overflow="visible"/><path fill="#f55" style="isolation:auto;mix-blend-mode:normal" d="m -1051.3622,1 12,0 0,12 -12,0 z" color="#000" overflow="visible" transform="rotate(-90)"/><path fill="#f2f2f2" style="isolation:auto;mix-blend-mode:normal" d="m -1049.3622,3 8,0 0,8 -8,0 z" color="#000" overflow="visible" transform="rotate(-90)"/><path fill="#f55" style="isolation:auto;mix-blend-mode:normal" d="M-1048.3622 7.5l2.5 0 0 2.4999995-2.5 0zM-1044.8622 7.5l2.5 0 0 2.5-2.5 0z" color="#000" overflow="visible" transform="rotate(-90)"/><path fill="#f55" d="m 13.00002,1049.3622 3,0 1,0 0,-10 1,0 -2.0078,-2 -1.9922,2 1,0 0,8 -2,0 z" color="#000" overflow="visible" style="isolation:auto;mix-blend-mode:normal"/><path fill="#f55" style="isolation:auto;mix-blend-mode:normal" d="M-1048.3622 4l2.5 0 0 2.4999995-2.5 0zM-1044.8622 4l2.5 0 0 2.5-2.5 0z" color="#000" overflow="visible" transform="rotate(-90)"/><path fill="#2a7fff" style="isolation:auto;mix-blend-mode:normal" d="m 1021.3622,-31 12,0 0,12 -12,0 z" color="#000" overflow="visible" transform="rotate(90)"/><path fill="#f2f2f2" style="isolation:auto;mix-blend-mode:normal" d="m 1023.3622,-29 8,0 0,8 -8,0 z" color="#000" overflow="visible" transform="rotate(90)"/><path fill="#2a7fff" style="isolation:auto;mix-blend-mode:normal" d="M1024.3622-24.5l2.5 0 0 2.5-2.5 0zM1027.8622-24.5l2.5 0 0 2.5-2.5 0z" color="#000" overflow="visible" transform="rotate(90)"/><path fill="#2a7fff" d="m 19,1023.3622 -3,0 -1,0 0,10 -1,0 2.0078,2 1.9922,-2 -1,0 0,-8 2,0 z" color="#000" overflow="visible" style="isolation:auto;mix-blend-mode:normal"/><path fill="#2a7fff" style="isolation:auto;mix-blend-mode:normal" d="M1024.3622-28l2.5 0 0 2.5-2.5 0zM1027.8622-28l2.5 0 0 2.5-2.5 0z" color="#000" overflow="visible" transform="rotate(90)"/><path fill="#ffd42a" style="isolation:auto;mix-blend-mode:normal" d="m -31,-1051.3622 12,0 0,12 -12,0 z" color="#000" overflow="visible" transform="scale(-1)"/><path fill="#f2f2f2" style="isolation:auto;mix-blend-mode:normal" d="m -29,-1049.3622 8,0 0,8 -8,0 z" color="#000" overflow="visible" transform="scale(-1)"/><path fill="#ffd42a" style="isolation:auto;mix-blend-mode:normal" d="M-28-1044.8622l2.5 0 0 2.5-2.5 0zM-24.5-1044.8622l2.5 0 0 2.5-2.5 0z" color="#000" overflow="visible" transform="scale(-1)"/><path fill="#ffd42a" style="isolation:auto;mix-blend-mode:normal" d="m 29,1039.3623 0,-3 0,-1 -10,0 0,-1 -2,2.0078 2,1.9922 0,-1 8,0 0,2 z" color="#000" overflow="visible"/><path fill="#ffd42a" style="isolation:auto;mix-blend-mode:normal" d="M-28-1048.3622l2.5 0 0 2.5-2.5 0zM-24.5-1048.3622l2.5 0 0 2.5-2.5 0z" color="#000" overflow="visible" transform="scale(-1)"/></g></svg>